<?xml version="1.0" encoding="UTF-8" standalone="no"?>
<!-- Created with Inkscape (http://www.inkscape.org/) -->

<svg
   xmlns:dc="http://purl.org/dc/elements/1.1/"
   xmlns:cc="http://creativecommons.org/ns#"
   xmlns:rdf="http://www.w3.org/1999/02/22-rdf-syntax-ns#"
   xmlns:svg="http://www.w3.org/2000/svg"
   xmlns="http://www.w3.org/2000/svg"
   xmlns:sodipodi="http://sodipodi.sourceforge.net/DTD/sodipodi-0.dtd"
   xmlns:inkscape="http://www.inkscape.org/namespaces/inkscape"
   id="svg2"
   version="1.1"
   inkscape:version="0.48.4 r9939"
   width="990"
   height="765"
   xml:space="preserve"
   sodipodi:docname="scarsdale-assessor-2012.pdf"><metadata
     id="metadata8"><rdf:RDF><cc:Work
         rdf:about=""><dc:format>image/svg+xml</dc:format><dc:type
           rdf:resource="http://purl.org/dc/dcmitype/StillImage" /><dc:title></dc:title></cc:Work></rdf:RDF></metadata><defs
     id="defs6" /><sodipodi:namedview
     pagecolor="#ffffff"
     bordercolor="#666666"
     borderopacity="1"
     objecttolerance="10"
     gridtolerance="10"
     guidetolerance="10"
     inkscape:pageopacity="0"
     inkscape:pageshadow="2"
     inkscape:window-width="640"
     inkscape:window-height="480"
     id="namedview4"
     showgrid="false"
     inkscape:zoom="0.30849673"
     inkscape:cx="495"
     inkscape:cy="382.5"
     inkscape:window-x="0"
     inkscape:window-y="24"
     inkscape:window-maximized="0"
     inkscape:current-layer="g10" /><g
     id="g10"
     inkscape:groupmode="layer"
     inkscape:label="scarsdale-assessor-2012"
     transform="matrix(0,1.25,1.25,0,0,0)"><g
       id="g12"
       transform="scale(0.12,0.12)"><g
         id="g14"
         transform="scale(8.33333,8.33333)"><text
           transform="matrix(0,1,0.9981036,0,68.9995,52.559498)"
           id="text16"><tspan
             style="fill:#000000;fill-opacity:1;fill-rule:nonzero;stroke:none;font-family:Courier;font-variant:normal;font-weight:bold;font-size:8.41596;writing-mode:lr;-inkscape-font-specification:Courier-Bold"
             x="0 5.03999956 10.08000283 15.1200061 20.16000936 25.20001263 30.24001589 35.28001916 40.32002243 45.36001837 50.40002164 55.4400249 60.48002817 65.52003144 70.56004203 75.60003797 80.64003391 85.68002986 246.95944244 251.99943838 257.03943432 262.07943027 267.11942621 282.23941405 287.27940999 292.31940594 297.35940188 302.39939782 307.43939377 312.47938971 317.51938566 322.5593816 327.59937755 332.63937349 337.67936944 342.71936538 347.75936132 362.87934916 367.9193451 372.95934105 377.99933699 383.03933293 388.07932888 393.11932482 398.15932077 403.19931671 408.23931266 423.35930049 428.39929643 433.43929238 438.47928832 443.51931356 448.55933879 453.59936402 458.63938925 503.99894981 509.03897504 514.07900027 519.11902551 524.15905074 529.19907597 665.27975723"
             y="0"
             sodipodi:role="line"
             id="tspan18">STATE OF NEW YORK 2012 V I L L A G E F I N A L R O L L PAGE: 1</tspan><tspan
             style="fill:#000000;fill-opacity:1;fill-rule:nonzero;stroke:none;font-family:Courier;font-variant:normal;font-weight:bold;font-size:8.41596;writing-mode:lr;-inkscape-font-specification:Courier-Bold"
             x="-20.16100015 -0.0010019 5.03899766 10.07900093 15.1190042 20.15900746 25.19901073 30.23901399 35.27901726 40.31902053 45.35901647 50.39901974 55.439023 60.47902627 65.51902954 70.55904013 75.59903607 80.63903201 85.67902796 90.7190239 95.75901985 257.03843242 262.07842837 267.11842431 272.15842026 277.1984162 282.23841215 287.27840809 292.31840404 297.35839998 302.39839592 307.43839187 312.47838781 317.51838376 322.5583797 327.59837565 332.63837159 337.67836754 342.71836348 347.75835942 352.79835537 357.83835131 362.87834726 367.9183432 372.95833915 377.99833509 383.03833103 388.07832698 393.11832292 398.15831887 403.19831481 408.23831076 413.2783067 418.31830265 423.35829859 433.43829048 438.47828642 443.51831166 448.55833689 503.99794791 509.03797314 514.07799837 519.11802361 524.15804884 529.19807407 534.2380993 539.27812453 544.31814977 549.358175 554.39820023 559.43822546 564.47825069 569.51827593 574.55830116 579.59832639 584.63835162 624.95855348 629.99857871 635.03860394 640.07862917 645.11865441 650.15867964 655.19870487 660.2387301 665.27875533"
             y="8.41596"
             sodipodi:role="line"
             id="tspan20"> COUNTY: WESTCHESTER T A X A B L E SECTION OF THE ROLL - 1 ROLL PRINT DATE: 9/14/2012</tspan><tspan
             style="fill:#000000;fill-opacity:1;fill-rule:nonzero;stroke:none;font-family:Courier;font-variant:normal;font-weight:bold;font-size:8.41596;writing-mode:lr;-inkscape-font-specification:Courier-Bold"
             x="-20.16200205 -0.0020038 5.03799576 10.07799903 15.1180023 20.15800556 25.19800883 30.23801209 35.27801536 40.31801863 45.35801457 50.39801784 55.4380211 60.47802437 65.51802764 70.55803823 75.59803417 80.63803011 85.67802606 90.718022 95.75801795 100.79801389 317.51738186 322.5573778 327.59737375 332.63736969 337.67736564 342.71736158 347.75735752 352.79735347 357.83734941 362.87734536 367.9173413 372.95733725 377.99733319 383.03732913 388.07732508 393.11732102 503.99694601 509.03697124 514.07699647 519.11702171 524.15704694 529.19707217 534.2370974 539.27712263 544.31714787 549.3571731 554.39719833 559.43722356 564.47724879 569.51727403 574.55729926 579.59732449 629.99757681 635.03760204 640.07762727 645.11765251 650.15767774 655.19770297 660.2377282 665.27775343"
             y="16.83192"
             sodipodi:role="line"
             id="tspan22"> VILLAGE OF SCARSDALE PARCEL ID ORDER VALUATION DATE: 7/1/2011</tspan><tspan
             style="fill:#000000;fill-opacity:1;fill-rule:nonzero;stroke:none;font-family:Courier;font-variant:normal;font-weight:bold;font-size:8.41596;writing-mode:lr;-inkscape-font-specification:Courier-Bold"
             x="-20.16300395 -0.0030057 5.03699386 10.07699713 15.1170004 20.15700366 25.19700693 30.23701019 35.27701346 40.31701673 45.35701267 50.39701594 55.4370192 60.47702247 70.55703633 75.59703227 80.63702821 85.67702416 90.7170201 95.75701605 100.79701199 105.83699329 110.87698924 115.91698518 120.95698113 125.99697707 277.1964124 282.23640835 287.27640429 292.31640024 297.35639618 302.39639212 307.43638807 312.47638401 317.51637996 322.5563759 327.59637185 332.63636779 337.67636374 342.71635968 347.75635562 352.79635157 357.83634751 362.87634346 367.9163394 372.95633535 377.99633129 383.03632723 388.07632318 393.11631912 398.15631507 403.19631101 408.23630696 413.2763029 418.31629885 423.35629479 428.39629073 433.43628668 503.99594411 509.03596934 514.07599457 519.11601981 524.15604504 529.19607027 534.2360955 539.27612073 544.31614597 549.3561712 554.39619643 559.43622166 564.47624689 569.51627213 574.55629736 579.59632259 584.63634782 589.67637305 594.71639829 599.75642352 604.79644875 629.99657491 635.03660014 640.07662537 645.11665061 650.15667584 655.19670107 660.2367263 665.27675153"
             y="25.24788"
             sodipodi:role="line"
             id="tspan24"> SWIS: 555000 (SCARSDALE) UNIFORM PERCENT OF VALUE = 1.77 TAXABLE STATUS DATE: 5/1/2012</tspan><tspan
             style="fill:#000000;fill-opacity:1;fill-rule:nonzero;stroke:none;font-family:Courier;font-variant:normal;font-weight:bold;font-size:8.41596;writing-mode:lr;-inkscape-font-specification:Courier-Bold"
             x="-20.16400585 -0.0040076 5.03599196 10.07599523 15.1159985 20.15600176 25.19600503 30.23600829 35.27601156 40.31601483 45.35601077 50.39601404 55.4360173 60.47602057 65.51602384 70.55603443 75.59603037 80.63602631 85.67602226 110.87598734 115.91598328 120.95597923 136.07596706 141.115963 146.15595895 151.19595489 156.23595084 161.27594678 166.31594273 171.35593867 176.39593461 181.43593056 186.4759265 191.51592245 196.55594768 201.59594362 206.63593957 211.67593551 216.71593146 221.7559274 226.79589406 231.83589 236.87544295 241.91543889 246.95543484 251.99543078 257.03542672 262.07542267 302.39539022 307.43538617 312.47538211 317.51537806 322.555374 327.59536995 332.63536589 337.67536184 342.71535778 347.75535372 352.79534967 357.83534561 362.87534156 367.9153375 372.95533345 377.99532939 383.03532533 388.07532128 393.11531722 398.15531317 403.19530911 408.23530506 413.275301 418.31529695 423.35529289 428.39528883 433.43528478 438.47528072 443.51530596 448.55533119 453.59535642 458.63538165 463.67540688 468.71543212 473.75539877 478.795424 483.83544924 488.87547447 493.91489175 498.95491698 503.99494221 509.03496744 514.07499267 519.11501791 524.15504314 529.19506837 534.2350936 539.27511883 544.31514407 549.3551693 554.39519453 559.43521976 564.47524499 569.51527023 574.55529546 579.59532069 584.63534592 589.67537115 594.71539639 599.75542162 604.79544685 609.83547208"
             y="50.49576"
             sodipodi:role="line"
             id="tspan26"> TAX MAP PARCEL ID CD PROPERTY LOCATION &amp; CLASS ASSESSMENT EXEMPTION CODE-----------COUNTY-----VILL-----SCHOOL</tspan><tspan
             style="fill:#000000;fill-opacity:1;fill-rule:nonzero;stroke:none;font-family:Courier;font-variant:normal;font-weight:bold;font-size:8.41596;writing-mode:lr;-inkscape-font-specification:Courier-Bold"
             x="-20.16500775 -0.0050095 5.03499006 10.07499333 15.1149966 20.15499986 25.19500313 30.23500639 35.27500966 40.31501293 45.35500887 50.39501214 55.4350154 60.47501867 65.51502194 70.55503253 75.59502847 80.63502441 85.67502036 90.7150163 95.75501225 136.07496516 141.1149611 146.15495705 151.19495299 156.23494894 161.27494488 166.31494083 171.35493677 176.39493271 181.43492866 186.4749246 191.51492055 196.55494578 201.59494172 206.63493767 211.67493361 302.39438832 307.43438427 312.47438021 317.51437616 322.5543721 327.59436805 332.63436399 337.67435994 342.71435588 347.75435182 352.79434777 357.83434371 362.87433966 367.9143356 372.95433155 377.99432749 383.03432343 388.07431938 393.11431532 398.15431127 403.19430721 408.23430316 413.2742991 418.31429505 423.35429099 428.39428693 433.43428288 498.95391508 503.99394031 509.03396554 514.07399077 519.11401601 524.15404124 529.19406647 534.2340917 539.27411693 544.31414217 549.3541674 554.39419263 559.43421786"
             y="58.91172"
             sodipodi:role="line"
             id="tspan28"> CURRENT OWNERS NAME SCHOOL DISTRICT ---LAND--- TAX DESCRIPTION TAXABLE VALUE</tspan><tspan
             style="fill:#000000;fill-opacity:1;fill-rule:nonzero;stroke:none;font-family:Courier;font-variant:normal;font-weight:bold;font-size:8.41596;writing-mode:lr;-inkscape-font-specification:Courier-Bold"
             x="-20.16600965 -0.0060114 5.03398816 10.07399143 15.1139947 20.15399796 25.19400123 30.23400449 35.27400776 40.31401103 45.35400697 50.39401024 55.4340135 60.47401677 65.51402004 70.55403063 75.59402657 80.63402251 85.67401846 90.7140144 95.75401035 100.79400629 105.83398759 110.87398354 136.07396326 141.1139592 146.15395515 151.19395109 156.23394704 161.27394298 166.31393893 171.35393487 176.39393081 181.43392676 186.4739227 191.51391865 196.55394388 201.59393982 206.63393577 211.67393171 216.71392766 221.7539236 226.79389026 231.8338862 236.87343915 241.91343509 246.95343104 302.39338642 307.43338237 312.47337831 317.51337426 322.5533702 327.59336615 332.63336209 337.67335804 342.71335398 347.75334992 352.79334587 357.83334181 362.87333776 367.9133337 372.95332965 377.99332559 383.03332153 388.07331748 393.11331342 398.15330937 403.19330531 408.23330126 413.2732972 418.31329315 423.35328909 428.39328503 433.43328098 438.47327692"
             y="67.32768"
             sodipodi:role="line"
             id="tspan30"> CURRENT OWNERS ADDRESS PARCEL SIZE/GRID COORD --TOTAL--- SPECIAL DISTRICTS</tspan><tspan
             style="fill:#000000;fill-opacity:1;fill-rule:nonzero;stroke:none;font-family:Courier;font-variant:normal;font-weight:bold;font-size:8.41596;writing-mode:lr;-inkscape-font-specification:Courier-Bold"
             x="-20.16600965 -0.0060114 5.03398816 10.07399143 15.1139947 20.15399796 25.19400123 30.23400449 35.27400776 40.31401103 45.35400697 50.39401024 55.4340135 60.47401677 65.51402004 70.55403063 75.59402657 80.63402251 85.67401846 90.7140144 95.75401035 100.79400629 105.83398759 110.87398354 115.91397948 120.95397543 125.99397137 131.03396731 136.07396326 141.1139592 146.15395515 151.19395109 156.23394704 161.27394298 166.31393893 171.35393487 176.39393081 181.43392676 186.4739227 191.51391865 196.55394388 201.59393982 206.63393577 211.67393171 216.71392766 221.7539236 226.79389026 231.8338862 236.87343915 241.91343509 246.95343104 251.99342698 257.03342292 262.07341887 267.11341481 272.15341076 277.1934067 282.23340265 287.27339859 292.31339454 297.35339048 302.39338642 307.43338237 312.47337831 317.51337426 322.5533702 327.59336615 332.63336209 337.67335804 342.71335398 347.75334992 352.79334587 357.83334181 362.87333776 367.9133337 372.95332965 377.99332559 383.03332153 388.07331748 393.11331342 398.15330937 403.19330531 408.23330126 413.2732972 418.31329315 423.35328909 428.39328503 433.43328098 438.47327692 443.51330216 448.55332739 453.59335262 458.63337785 463.67340308 468.71342832 473.75339497 478.7934202 483.83344544 488.87347067 493.91288795 498.95291318 503.99293841 509.03296364 514.07298887 519.11301411 524.15303934 529.19306457 534.2330898 539.27311503 544.31314027 549.3531655 554.39319073 559.43321596 564.47324119 569.51326643 574.55329166 579.59331689 584.63334212 589.67336735 594.71339259 599.75341782 604.79344305 609.83346828 614.87349351 619.91351875 624.95354398 629.99356921 635.03359444 640.07361967 645.11364491 650.15367014 655.19369537"
             y="75.74364"
             sodipodi:role="line"
             id="tspan32"> ********************************************************************************************** 01.01.1 ****************************</tspan><tspan
             style="fill:#000000;fill-opacity:1;fill-rule:nonzero;stroke:none;font-family:Courier;font-variant:normal;font-weight:bold;font-size:8.41596;writing-mode:lr;-inkscape-font-specification:Courier-Bold"
             x="-20.16701155 136.07296136 141.1129573 146.15295325 151.19294919 156.23294514 161.27294108 166.31293703 171.35293297 176.39292891 181.43292486 186.4729208 191.51291675 488.87246877 493.91188605 498.95191128 503.99193651 509.03196174 514.07198697 519.11201221 524.15203744 529.19206267 534.2320879 539.27211313 544.31213837 549.3521636 554.39218883 559.43221406 564.47223929"
             y="84.1596"
             sodipodi:role="line"
             id="tspan34"> 4 SCHOOL LA ACCT: 010001000 </tspan><tspan
             style="fill:#000000;fill-opacity:1;fill-rule:nonzero;stroke:none;font-family:Courier;font-variant:normal;font-weight:bold;font-size:8.41596;writing-mode:lr;-inkscape-font-specification:Courier-Bold"
             x="-0.0080152 5.03198436 10.07198763 15.1119909 20.15199416 25.19199743 30.23200069 35.27200396 110.87197974 115.91197568 120.95197163 136.07195946 141.1119554 146.15195135 151.19194729 156.23194324 161.27193918 166.31193513 171.35193107 176.39192701 181.43192296 186.4719189 191.51191485 196.55194008 201.59193602 206.63193197 211.67192791 216.71192386 357.83133801 362.87133396 367.9113299 372.95132585 377.99132179 383.03131773 388.07131368 393.11130962 398.15130557 403.19130151 408.23129746 413.2712934 418.31128935 423.35128529 428.39128123 599.75141402 604.79143925 609.83146448 614.87148971 619.91151495"
             y="92.57556"
             sodipodi:role="line"
             id="tspan36">01.01.1 NX 210 1 FAMILY RES 41854 RES STAR 1,830</tspan><tspan
             style="fill:#000000;fill-opacity:1;fill-rule:nonzero;stroke:none;font-family:Courier;font-variant:normal;font-weight:bold;font-size:8.41596;writing-mode:lr;-inkscape-font-specification:Courier-Bold"
             x="-20.16901535 -0.0090171 5.03098246 10.07098573 15.110989 20.15099226 25.19099553 30.23099879 35.27100206 40.31100533 45.35100127 50.39100454 55.4310078 60.47101107 65.51101434 70.55102493 75.59102087 146.15094945 151.19094539 156.23094134 161.27093728 166.31093323 171.35092917 176.39092511 181.43092106 186.470917 191.51091295 196.55093818 201.59093412 206.63093007 211.67092601 216.71092196 221.7509179 226.79088456 231.8308805 327.59036045 332.63035639 337.67035234 342.71034828 347.75034422 352.79034017 357.83033611 362.87033206 367.910328 372.95032395 377.99031989 383.03031583 388.07031178 393.11030772 398.15030367 403.19029961 408.23029556 413.2702915 418.31028745 423.35028339 428.39027933 534.2300841 539.27010933 544.31013457 549.3501598 554.39018503 559.43021026 564.47023549"
             y="100.99152"
             sodipodi:role="line"
             id="tspan38"> RAKOWER MICHAEL SCARSDALE CENTRAL 5,700 COUNTY TAXABLE 16,000 </tspan><tspan
             style="fill:#000000;fill-opacity:1;fill-rule:nonzero;stroke:none;font-family:Courier;font-variant:normal;font-weight:bold;font-size:8.41596;writing-mode:lr;-inkscape-font-specification:Courier-Bold"
             x="-0.010019 5.02998056 10.06998383 15.1099871 20.14999036 25.18999363 30.22999689 35.27000016 40.31000343 45.34999937 50.39000264 55.4300059 60.47000917 136.06995566 141.1099516 146.14994755 151.18994349 156.22993944 161.26993538 166.30993133 171.34992727 181.42991916 186.4699151 191.50991105 196.54993628 201.58993222 357.82933421 362.86933016 367.9093261 372.94932205 377.98931799 383.02931393 388.06930988 393.10930582 398.14930177 403.18929771 408.22929366 413.2692896 418.30928555 423.34928149 428.38927743 433.42927338 534.2290822 539.26910743 544.30913267 549.3491579 554.38918313 559.42920836 564.46923359"
             y="109.40748"
             sodipodi:role="line"
             id="tspan40">RAKOWER SALI ACREAGE 0.27 VILLAGE TAXABLE 16,000 </tspan><tspan
             style="fill:#000000;fill-opacity:1;fill-rule:nonzero;stroke:none;font-family:Courier;font-variant:normal;font-weight:bold;font-size:8.41596;writing-mode:lr;-inkscape-font-specification:Courier-Bold"
             x="-0.0110209 5.02897866 10.06898193 15.1089852 20.14898846 25.18899173 30.22899499 35.26899826 40.30900153 45.34899747 50.38900074 55.429004 136.06895376 141.1089497 146.14894565 151.18894159 156.22893754 161.26893348 166.30892943 171.34892537 176.38892131 181.42891726 186.4689132 191.50890915 196.54893438 201.58893032 206.62892627 211.66892221 216.70891816 221.7489141 226.78888076 231.8288767 236.86842965 322.5483607 327.58835665 332.62835259 337.66834854 342.70834448 347.74834042 352.78833637 357.82833231 362.86832826 367.9083242 372.94832015 377.98831609 383.02831203 388.06830798 393.10830392 398.14829987 403.18829581 408.22829176 413.2682877 418.30828365 423.34827959 428.38827553 534.2280803 539.26810553 544.30813077 549.348156 554.38818123 559.42820646 564.46823169"
             y="117.82344"
             sodipodi:role="line"
             id="tspan42">4 SCHOOL LA FRNT 69.00 DPTH 0.00 16,000 SCHOOL TAXABLE 14,170 </tspan><tspan
             style="fill:#000000;fill-opacity:1;fill-rule:nonzero;stroke:none;font-family:Courier;font-variant:normal;font-weight:bold;font-size:8.41596;writing-mode:lr;-inkscape-font-specification:Courier-Bold"
             x="-0.0120228 5.02797676 10.06798003 15.1079833 20.14798656 25.18798983 30.22799309 35.26799636 40.30799963 45.34799557 50.38799884 55.4280021 60.46800537 65.50800864 70.54801923 75.58801517 80.62801111 85.66800706 90.708003 136.06795186 141.1079478 146.14794375 151.18793969 156.22793564 161.26793158 166.30792753 171.34792347 181.42791536 186.4679113 191.50790725 196.54793248 201.58792842 206.62792437 216.70791626 221.7479122 226.78787886 236.86742775 241.90742369 246.94741964 251.98741558 257.02741152 357.82733041 362.86732636 367.9073223 372.94731825 377.98731419 383.02731013 388.06730608 393.10730202 398.14729797 403.18729391 408.22728986 413.2672858 418.30728175 423.34727769 428.38727363 433.42726958 438.46726552 443.50729076 534.2270784 539.26710363 544.30712887 549.3471541 554.38717933 559.42720456 564.46722979 569.50725503 574.54728026 579.58730549 584.62733072"
             y="126.2394"
             sodipodi:role="line"
             id="tspan44">SCARSDALE NY 10583 DEED BK 50140 PG 3111 BS501 BRONX SEWER 16,000 TO C</tspan><tspan
             style="fill:#000000;fill-opacity:1;fill-rule:nonzero;stroke:none;font-family:Courier;font-variant:normal;font-weight:bold;font-size:8.41596;writing-mode:lr;-inkscape-font-specification:Courier-Bold"
             x="-20.17302295 136.06694996 141.1069459 146.14694185 151.18693779 156.22693374 161.26692968 166.30692563 171.34692157 357.82632851 362.86632446 367.9063204 372.94631635 377.98631229 383.02630823 388.06630418 393.10630012 398.14629607 403.18629201 408.22628796 413.2662839 418.30627985 423.34627579 428.38627173 433.42626768 438.46626362 443.50628886 448.54631409 453.58633932 458.62636455 463.66638978 534.2260765 539.26610173 544.30612697 549.3461522 554.38617743 559.42620266 564.46622789 569.50625313 574.54627836 579.58630359"
             y="134.65536"
             sodipodi:role="line"
             id="tspan46"> BANK 21 CW501 COUNTY SOLID WA 16,000 TO </tspan><tspan
             style="fill:#000000;fill-opacity:1;fill-rule:nonzero;stroke:none;font-family:Courier;font-variant:normal;font-weight:bold;font-size:8.41596;writing-mode:lr;-inkscape-font-specification:Courier-Bold"
             x="136.06594806 141.105944 146.14593995 151.18593589 156.22593184 161.26592778 166.30592373 171.34591967 176.38591561 181.42591156 186.4659075 191.50590345 196.54592868 206.62592057 211.66591651 216.70591246 221.7459084 226.78587506 231.825871 236.86542395 241.90541989"
             y="143.07132"
             sodipodi:role="line"
             id="tspan48">FULL MKT VAL 903,954 </tspan><tspan
             style="fill:#000000;fill-opacity:1;fill-rule:nonzero;stroke:none;font-family:Courier;font-variant:normal;font-weight:bold;font-size:8.41596;writing-mode:lr;-inkscape-font-specification:Courier-Bold"
             x="-0.0150285 5.02497106 10.06497433 15.1049776 20.14498086 25.18498413 30.22498739 35.26499066 40.30499393 45.34498987 50.38499314 55.4249964 60.46499967 65.50500294 70.54501353 75.58500947 80.62500541 85.66500136 90.7049973 95.74499325 100.78498919 105.82497049 110.86496644 115.90496238 120.94495833 125.98495427 131.02495021 136.06494616 141.1049421 146.14493805 151.18493399 156.22492994 161.26492588 166.30492183 171.34491777 176.38491371 181.42490966 186.4649056 191.50490155 196.54492678 201.58492272 206.62491867 211.66491461 216.70491056 221.7449065 226.78487316 231.8248691 236.86442205 241.90441799 246.94441394 251.98440988 257.02440582 262.06440177 267.10439771 272.14439366 277.1843896 282.22438555 287.26438149 292.30437744 297.34437338 302.38436932 307.42436527 312.46436121 317.50435716 322.5443531 327.58434905 332.62434499 337.66434094 342.70433688 347.74433282 352.78432877 357.82432471 362.86432066 367.9043166 372.94431255 377.98430849 383.02430443 388.06430038 393.10429632 398.14429227 403.18428821 408.22428416 413.2642801 418.30427605 423.34427199 428.38426793 433.42426388 438.46425982 443.50428506 448.54431029 453.58433552 458.62436075 463.66438598 468.70441122 473.74437787 478.7844031 483.82442834 488.86445357 493.90387085 498.94389608 503.98392131 509.02394654 514.06397177 519.10399701 524.14402224 529.18404747 534.2240727 539.26409793 544.30412317 549.3441484 554.38417363 559.42419886 564.46422409 569.50424933 574.54427456 579.58429979 584.62432502 589.66435025 594.70437549 599.74440072 604.78442595 609.82445118 614.86447641 619.90450165 624.94452688 629.98455211 635.02457734 640.06460257 645.10462781 650.14465304 655.18467827"
             y="151.48728"
             sodipodi:role="line"
             id="tspan50">********************************************************************************************** 01.01.2 ****************************</tspan><tspan
             style="fill:#000000;fill-opacity:1;fill-rule:nonzero;stroke:none;font-family:Courier;font-variant:normal;font-weight:bold;font-size:8.41596;writing-mode:lr;-inkscape-font-specification:Courier-Bold"
             x="-20.17602865 136.06394426 141.1039402 146.14393615 151.18393209 156.22392804 161.26392398 166.30391993 171.34391587 176.38391181 181.42390776 186.4639037 191.50389965 488.86345167 493.90286895 498.94289418 503.98291941 509.02294464 514.06296987 519.10299511 524.14302034 529.18304557 534.2230708 539.26309603 544.30312127 549.3431465 554.38317173 559.42319696 564.46322219"
             y="159.90324"
             sodipodi:role="line"
             id="tspan52"> 6 SCHOOL LA ACCT: 010002000 </tspan><tspan
             style="fill:#000000;fill-opacity:1;fill-rule:nonzero;stroke:none;font-family:Courier;font-variant:normal;font-weight:bold;font-size:8.41596;writing-mode:lr;-inkscape-font-specification:Courier-Bold"
             x="-0.0170323 5.02296726 10.06297053 15.1029738 20.14297706 25.18298033 30.22298359 35.26298686 110.86296264 115.90295858 120.94295453 136.06294236 141.1029383 146.14293425 151.18293019 156.22292614 161.26292208 166.30291803 171.34291397 176.38290991 181.42290586 186.4629018 191.50289775 196.54292298 201.58291892 206.62291487 211.66291081 216.70290676 357.82232091 362.86231686 367.9023128 372.94230875 377.98230469 383.02230063 388.06229658 393.10229252 398.14228847 403.18228441 408.22228036 413.2622763 418.30227225 423.34226819 428.38226413 599.74239692 604.78242215 609.82244738 614.86247261 619.90249785"
             y="168.3192"
             sodipodi:role="line"
             id="tspan54">01.01.2 OK 210 1 FAMILY RES 41854 RES STAR 1,830</tspan><tspan
             style="fill:#000000;fill-opacity:1;fill-rule:nonzero;stroke:none;font-family:Courier;font-variant:normal;font-weight:bold;font-size:8.41596;writing-mode:lr;-inkscape-font-specification:Courier-Bold"
             x="-20.17803245 -0.0180342 5.02196536 10.06196863 15.1019719 20.14197516 25.18197843 30.22198169 35.26198496 40.30198823 45.34198417 50.38198744 55.4219907 60.46199397 146.14193235 151.18192829 156.22192424 161.26192018 166.30191613 171.34191207 176.38190801 181.42190396 186.4618999 191.50189585 196.54192108 201.58191702 206.62191297 211.66190891 216.70190486 221.7419008 226.78186746 231.8218634 327.58134335 332.62133929 337.66133524 342.70133118 347.74132712 352.78132307 357.82131901 362.86131496 367.9013109 372.94130685 377.98130279 383.02129873 388.06129468 393.10129062 398.14128657 403.18128251 408.22127846 413.2612744 418.30127035 423.34126629 428.38126223 534.221067 539.26109223 544.30111747 549.3411427 554.38116793 559.42119316 564.46121839"
             y="176.73516"
             sodipodi:role="line"
             id="tspan56"> GORDON DAVID SCARSDALE CENTRAL 6,400 COUNTY TAXABLE 17,600 </tspan><tspan
             style="fill:#000000;fill-opacity:1;fill-rule:nonzero;stroke:none;font-family:Courier;font-variant:normal;font-weight:bold;font-size:8.41596;writing-mode:lr;-inkscape-font-specification:Courier-Bold"
             x="-0.0190361 5.02096346 10.06096673 15.10097 20.14097326 25.18097653 30.22097979 35.26098306 40.30098633 45.34098227 50.38098554 55.4209888 60.46099207 65.50099534 136.06093856 141.1009345 146.14093045 151.18092639 156.22092234 161.26091828 166.30091423 171.34091017 181.42090206 186.460898 191.50089395 196.54091918 201.58091512 357.82031711 362.86031306 367.900309 372.94030495 377.98030089 383.02029683 388.06029278 393.10028872 398.14028467 403.18028061 408.22027656 413.2602725 418.30026845 423.34026439 428.38026033 433.42025628 534.2200651 539.26009033 544.30011557 549.3401408 554.38016603 559.42019126 564.46021649"
             y="185.15112"
             sodipodi:role="line"
             id="tspan58">HORWITZ ERICA ACREAGE 0.34 VILLAGE TAXABLE 17,600 </tspan><tspan
             style="fill:#000000;fill-opacity:1;fill-rule:nonzero;stroke:none;font-family:Courier;font-variant:normal;font-weight:bold;font-size:8.41596;writing-mode:lr;-inkscape-font-specification:Courier-Bold"
             x="-0.020038 5.01996156 10.05996483 15.0999681 20.13997136 25.17997463 30.21997789 35.25998116 40.29998443 45.33998037 50.37998364 55.4199869 60.45999017 65.49999344 136.05993666 141.0999326 146.13992855 151.17992449 156.21992044 161.25991638 166.29991233 171.33990827 176.37990421 181.41990016 186.4598961 191.49989205 196.53991728 201.57991322 206.61990917 211.65990511 216.69990106 221.739897 226.77986366 231.8198596 236.85941255 322.5393436 327.57933955 332.61933549 337.65933144 342.69932738 347.73932332 352.77931927 357.81931521 362.85931116 367.8993071 372.93930305 377.97929899 383.01929493 388.05929088 393.09928682 398.13928277 403.17927871 408.21927466 413.2592706 418.29926655 423.33926249 428.37925843 534.2190632 539.25908843 544.29911367 549.3391389 554.37916413 559.41918936 564.45921459"
             y="193.56708"
             sodipodi:role="line"
             id="tspan60">6 SCHOOL LANE FRNT 75.00 DPTH 0.00 17,600 SCHOOL TAXABLE 15,770 </tspan><tspan
             style="fill:#000000;fill-opacity:1;fill-rule:nonzero;stroke:none;font-family:Courier;font-variant:normal;font-weight:bold;font-size:8.41596;writing-mode:lr;-inkscape-font-specification:Courier-Bold"
             x="-0.0210399 5.01895966 10.05896293 15.0989662 20.13896946 25.17897273 30.21897599 35.25897926 40.29898253 45.33897847 50.37898174 55.418985 60.45898827 65.49899154 70.53900213 75.57899807 80.61899401 85.65898996 90.6989859 136.05893476 141.0989307 146.13892665 151.17892259 156.21891854 161.25891448 166.29891043 171.33890637 181.41889826 186.4588942 191.49889015 196.53891538 201.57891132 206.61890727 216.69889916 221.7388951 226.77886176 236.85841065 241.89840659 246.93840254 251.97839848 357.81831331 362.85830926 367.8983052 372.93830115 377.97829709 383.01829303 388.05828898 393.09828492 398.13828087 403.17827681 408.21827276 413.2582687 418.29826465 423.33826059 428.37825653 433.41825248 438.45824842 443.49827366 534.2180613 539.25808653 544.29811177 549.338137 554.37816223 559.41818746 564.45821269 569.49823793 574.53826316 579.57828839 584.61831362"
             y="201.98304"
             sodipodi:role="line"
             id="tspan62">SCARSDALE NY 10583 DEED BK 10668 PG 123 BS501 BRONX SEWER 17,600 TO C</tspan><tspan
             style="fill:#000000;fill-opacity:1;fill-rule:nonzero;stroke:none;font-family:Courier;font-variant:normal;font-weight:bold;font-size:8.41596;writing-mode:lr;-inkscape-font-specification:Courier-Bold"
             x="-20.18204005 136.05793286 141.0979288 146.13792475 151.17792069 156.21791664 161.25791258 166.29790853 171.33790447 357.81731141 362.85730736 367.8973033 372.93729925 377.97729519 383.01729113 388.05728708 393.09728302 398.13727897 403.17727491 408.21727086 413.2572668 418.29726275 423.33725869 428.37725463 433.41725058 438.45724652 443.49727176 448.53729699 453.57732222 458.61734745 463.65737268 534.2170594 539.25708463 544.29710987 549.3371351 554.37716033 559.41718556 564.45721079 569.49723603 574.53726126 579.57728649"
             y="210.399"
             sodipodi:role="line"
             id="tspan64"> BANK 86 CW501 COUNTY SOLID WA 17,600 TO </tspan><tspan
             style="fill:#000000;fill-opacity:1;fill-rule:nonzero;stroke:none;font-family:Courier;font-variant:normal;font-weight:bold;font-size:8.41596;writing-mode:lr;-inkscape-font-specification:Courier-Bold"
             x="136.05693096 141.0969269 146.13692285 151.17691879 156.21691474 161.25691068 166.29690663 171.33690257 176.37689851 181.41689446 186.4568904 191.49688635 196.53691158 206.61690347 211.65689941 216.69689536 221.7368913 226.77685796 231.8168539 236.85640685 241.89640279"
             y="218.81496"
             sodipodi:role="line"
             id="tspan66">FULL MKT VAL 994,350 </tspan><tspan
             style="fill:#000000;fill-opacity:1;fill-rule:nonzero;stroke:none;font-family:Courier;font-variant:normal;font-weight:bold;font-size:8.41596;writing-mode:lr;-inkscape-font-specification:Courier-Bold"
             x="-0.0240456 5.01595396 10.05595723 15.0959605 20.13596376 25.17596703 30.21597029 35.25597356 40.29597683 45.33597277 50.37597604 55.4159793 60.45598257 65.49598584 70.53599643 75.57599237 80.61598831 85.65598426 90.6959802 95.73597615 100.77597209 105.81595339 110.85594934 115.89594528 120.93594123 125.97593717 131.01593311 136.05592906 141.095925 146.13592095 151.17591689 156.21591284 161.25590878 166.29590473 171.33590067 176.37589661 181.41589256 186.4558885 191.49588445 196.53590968 201.57590562 206.61590157 211.65589751 216.69589346 221.7358894 226.77585606 231.815852 236.85540495 241.89540089 246.93539684 251.97539278 257.01538872 262.05538467 267.09538061 272.13537656 277.1753725 282.21536845 287.25536439 292.29536034 297.33535628 302.37535222 307.41534817 312.45534411 317.49534006 322.535336 327.57533195 332.61532789 337.65532384 342.69531978 347.73531572 352.77531167 357.81530761 362.85530356 367.8952995 372.93529545 377.97529139 383.01528733 388.05528328 393.09527922 398.13527517 403.17527111 408.21526706 413.255263 418.29525895 423.33525489 428.37525083 433.41524678 438.45524272 443.49526796 448.53529319 453.57531842 458.61534365 463.65536888 468.69539412 473.73536077 478.775386 483.81541124 488.85543647 493.89485375 498.93487898 503.97490421 509.01492944 514.05495467 519.09497991 524.13500514 529.17503037 534.2150556 539.25508083 544.29510607 549.3351313 554.37515653 559.41518176 564.45520699 569.49523223 574.53525746 579.57528269 584.61530792 589.65533315 594.69535839 599.73538362 604.77540885 609.81543408 614.85545931 619.89548455 624.93550978 629.97553501 635.01556024 640.05558547 645.09561071 650.13563594 655.17566117"
             y="227.23092"
             sodipodi:role="line"
             id="tspan68">********************************************************************************************** 01.01.3 ****************************</tspan><tspan
             style="fill:#000000;fill-opacity:1;fill-rule:nonzero;stroke:none;font-family:Courier;font-variant:normal;font-weight:bold;font-size:8.41596;writing-mode:lr;-inkscape-font-specification:Courier-Bold"
             x="-20.18504575 136.05492716 141.0949231 146.13491905 151.17491499 156.21491094 161.25490688 166.29490283 171.33489877 176.37489471 181.41489066 186.4548866 191.49488255 488.85443457 493.89385185 498.93387708 503.97390231 509.01392754 514.05395277 519.09397801 524.13400324 529.17402847 534.2140537 539.25407893 544.29410417 549.3341294 554.37415463 559.41417986 564.45420509"
             y="235.64688"
             sodipodi:role="line"
             id="tspan70"> 8 SCHOOL LA ACCT: 010003000 </tspan><tspan
             style="fill:#000000;fill-opacity:1;fill-rule:nonzero;stroke:none;font-family:Courier;font-variant:normal;font-weight:bold;font-size:8.41596;writing-mode:lr;-inkscape-font-specification:Courier-Bold"
             x="-0.0260494 5.01395016 10.05395343 15.0939567 20.13395996 25.17396323 30.21396649 35.25396976 110.85394554 115.89394148 120.93393743 136.05392526 141.0939212 146.13391715 151.17391309 156.21390904 161.25390498 166.29390093 171.33389687 176.37389281 181.41388876 186.4538847 191.49388065 196.53390588 201.57390182 206.61389777 211.65389371 216.69388966 357.81330381 362.85329976 367.8932957 372.93329165 377.97328759 383.01328353 388.05327948 393.09327542 398.13327137 403.17326731 408.21326326 413.2532592 418.29325515 423.33325109 428.37324703 534.2130518 539.25307703 544.29310227 549.3331275 554.37315273 559.41317796 564.45320319"
             y="244.06284"
             sodipodi:role="line"
             id="tspan72">01.01.3 OX 210 1 FAMILY RES COUNTY TAXABLE 20,200 </tspan><tspan
             style="fill:#000000;fill-opacity:1;fill-rule:nonzero;stroke:none;font-family:Courier;font-variant:normal;font-weight:bold;font-size:8.41596;writing-mode:lr;-inkscape-font-specification:Courier-Bold"
             x="-0.0270513 5.01294826 10.05295153 15.0929548 20.13295806 25.17296133 30.21296459 35.25296786 40.29297113 45.33296707 50.37297034 60.45297687 65.49298014 70.53299073 75.57298667 80.61298261 85.65297856 90.6929745 95.73297045 100.77296639 146.13291525 151.17291119 156.21290714 161.25290308 166.29289903 171.33289497 176.37289091 181.41288686 186.4528828 191.49287875 196.53290398 201.57289992 206.61289587 211.65289181 216.69288776 221.7328837 226.77285036 231.8128463 327.57232625 332.61232219 337.65231814 342.69231408 347.73231002 352.77230597 357.81230191 362.85229786 367.8922938 372.93228975 377.97228569 383.01228163 388.05227758 393.09227352 398.13226947 403.17226541 408.21226136 413.2522573 418.29225325 423.33224919 428.37224513 433.41224108 534.2120499 539.25207513 544.29210037 549.3321256 554.37215083 559.41217606 564.45220129"
             y="252.4788"
             sodipodi:role="line"
             id="tspan74">MONGARELLA ANDREW K SCARSDALE CENTRAL 6,500 VILLAGE TAXABLE 20,200 </tspan><tspan
             style="fill:#000000;fill-opacity:1;fill-rule:nonzero;stroke:none;font-family:Courier;font-variant:normal;font-weight:bold;font-size:8.41596;writing-mode:lr;-inkscape-font-specification:Courier-Bold"
             x="-0.0280532 5.01194636 10.05194963 15.0919529 20.13195616 25.17195943 30.21196269 35.25196596 40.29196923 45.33196517 50.37196844 55.4119717 60.45197497 65.49197824 136.05192146 141.0919174 146.13191335 151.17190929 156.21190524 161.25190118 166.29189713 171.33189307 181.41188496 186.4518809 191.49187685 196.53190208 201.57189802 357.81130001 362.85129596 367.8912919 372.93128785 377.97128379 383.01127973 388.05127568 393.09127162 398.13126757 403.17126351 408.21125946 413.2512554 418.29125135 423.33124729 428.37124323 534.211048 539.25107323 544.29109847 549.3311237 554.37114893 559.41117416 564.45119939"
             y="260.89476"
             sodipodi:role="line"
             id="tspan76">8 SCHOOL LANE ACREAGE 0.36 SCHOOL TAXABLE 20,200 </tspan><tspan
             style="fill:#000000;fill-opacity:1;fill-rule:nonzero;stroke:none;font-family:Courier;font-variant:normal;font-weight:bold;font-size:8.41596;writing-mode:lr;-inkscape-font-specification:Courier-Bold"
             x="-0.0290551 5.01094446 10.05094773 15.090951 20.13095426 25.17095753 30.21096079 35.25096406 40.29096733 45.33096327 50.37096654 55.4109698 60.45097307 65.49097634 70.53098693 75.57098287 80.61097881 85.65097476 90.6909707 136.05091956 141.0909155 146.13091145 151.17090739 156.21090334 161.25089928 166.29089523 171.33089117 176.37088711 181.41088306 186.450879 191.49087495 196.53090018 201.57089612 206.61089207 211.65088801 216.69088396 221.7308799 226.77084656 231.8108425 236.85039545 322.5303265 327.57032245 332.61031839 337.65031434 342.69031028 347.73030622 352.77030217 357.81029811 362.85029406 367.89029 372.93028595 377.97028189 383.01027783 388.05027378 393.09026972 398.13026567 403.17026161 408.21025756 413.2502535 418.29024945 423.33024539 428.37024133 433.41023728 438.45023322 443.49025846 534.2100461 539.25007133 544.29009657 549.3301218 554.37014703 559.41017226 564.45019749 569.49022273 574.53024796 579.57027319 584.61029842"
             y="269.31072"
             sodipodi:role="line"
             id="tspan78">SCARSDALE NY 10583 FRNT 75.00 DPTH 0.00 20,200 BS501 BRONX SEWER 20,200 TO C</tspan><tspan
             style="fill:#000000;fill-opacity:1;fill-rule:nonzero;stroke:none;font-family:Courier;font-variant:normal;font-weight:bold;font-size:8.41596;writing-mode:lr;-inkscape-font-specification:Courier-Bold"
             x="-20.19005525 136.04991766 141.0899136 146.12990955 151.16990549 156.20990144 161.24989738 166.28989333 171.32988927 176.36988521 181.40988116 186.4498771 191.48987305 196.52989828 206.60989017 211.64988611 216.68988206 221.729878 226.76984466 231.8098406 236.84939355 241.88938949 246.92938544 251.96938138 357.80929621 362.84929216 367.8892881 372.92928405 377.96927999 383.00927593 388.04927188 393.08926782 398.12926377 403.16925971 408.20925566 413.2492516 418.28924755 423.32924349 428.36923943 433.40923538 438.44923132 443.48925656 448.52928179 453.56930702 458.60933225 463.64935748 534.2090442 539.24906943 544.28909467 549.3291199 554.36914513 559.40917036 564.44919559 569.48922083 574.52924606 579.56927129"
             y="277.72668"
             sodipodi:role="line"
             id="tspan80"> FULL MKT VAL 1,141,242 CW501 COUNTY SOLID WA 20,200 TO </tspan><tspan
             style="fill:#000000;fill-opacity:1;fill-rule:nonzero;stroke:none;font-family:Courier;font-variant:normal;font-weight:bold;font-size:8.41596;writing-mode:lr;-inkscape-font-specification:Courier-Bold"
             x="-0.0310589 5.00894066 10.04894393 15.0889472 20.12895046 25.16895373 30.20895699 35.24896026 40.28896353 45.32895947 50.36896274 55.408966 60.44896927 65.48897254 70.52898313 75.56897907 80.60897501 85.64897096 90.6889669 95.72896285 100.76895879 105.80894009 110.84893604 115.88893198 120.92892793 125.96892387 131.00891981 136.04891576 141.0889117 146.12890765 151.16890359 156.20889954 161.24889548 166.28889143 171.32888737 176.36888331 181.40887926 186.4488752 191.48887115 196.52889638 201.56889232 206.60888827 211.64888421 216.68888016 221.7288761 226.76884276 231.8088387 236.84839165 241.88838759 246.92838354 251.96837948 257.00837542 262.04837137 267.08836731 272.12836326 277.1683592 282.20835515 287.24835109 292.28834704 297.32834298 302.36833892 307.40833487 312.44833081 317.48832676 322.5283227 327.56831865 332.60831459 337.64831054 342.68830648 347.72830242 352.76829837 357.80829431 362.84829026 367.8882862 372.92828215 377.96827809 383.00827403 388.04826998 393.08826592 398.12826187 403.16825781 408.20825376 413.2482497 418.28824565 423.32824159 428.36823753 433.40823348 438.44822942 443.48825466 448.52827989 453.56830512 458.60833035 463.64835558 468.68838082 473.72834747 478.7683727 483.80839794 488.84842317 493.88784045 498.92786568 503.96789091 509.00791614 514.04794137 519.08796661 524.12799184 529.16801707 534.2080423 539.24806753 544.28809277 549.328118 554.36814323 559.40816846 564.44819369 569.48821893 574.52824416 579.56826939 584.60829462 589.64831985 594.68834509 599.72837032 604.76839555 609.80842078 614.84844601 619.88847125 624.92849648 629.96852171 635.00854694 640.04857217 645.08859741 650.12862264 655.16864787"
             y="286.14264"
             sodipodi:role="line"
             id="tspan82">********************************************************************************************** 01.01.4 ****************************</tspan><tspan
             style="fill:#000000;fill-opacity:1;fill-rule:nonzero;stroke:none;font-family:Courier;font-variant:normal;font-weight:bold;font-size:8.41596;writing-mode:lr;-inkscape-font-specification:Courier-Bold"
             x="-20.19205905 136.04791386 141.0879098 146.12790575 151.16790169 156.20789764 161.24789358 166.28788953 171.32788547 176.36788141 181.40787736 186.4478733 191.48786925 196.52789448 488.84742127 493.88683855 498.92686378 503.96688901 509.00691424 514.04693947 519.08696471 524.12698994 529.16701517 534.2070404 539.24706563 544.28709087 549.3271161 554.36714133 559.40716656 564.44719179"
             y="294.5586"
             sodipodi:role="line"
             id="tspan84"> 10 SCHOOL LA ACCT: 010004000 </tspan><tspan
             style="fill:#000000;fill-opacity:1;fill-rule:nonzero;stroke:none;font-family:Courier;font-variant:normal;font-weight:bold;font-size:8.41596;writing-mode:lr;-inkscape-font-specification:Courier-Bold"
             x="-0.0330627 5.00693686 10.04694013 15.0869434 20.12694666 25.16694993 30.20695319 35.24695646 110.84693224 115.88692818 120.92692413 136.04691196 141.0869079 146.12690385 151.16689979 156.20689574 161.24689168 166.28688763 171.32688357 176.36687951 181.40687546 186.4468714 191.48686735 196.52689258 201.56688852 206.60688447 211.64688041 216.68687636 357.80629051 362.84628646 367.8862824 372.92627835 377.96627429 383.00627023 388.04626618 393.08626212 398.12625807 403.16625401 408.20624996 413.2462459 418.28624185 423.32623779 428.36623373 534.2060385 539.24606373 544.28608897 549.3261142 554.36613943 559.40616466 564.44618989"
             y="302.97456"
             sodipodi:role="line"
             id="tspan86">01.01.4 PK 210 1 FAMILY RES COUNTY TAXABLE 26,500 </tspan><tspan
             style="fill:#000000;fill-opacity:1;fill-rule:nonzero;stroke:none;font-family:Courier;font-variant:normal;font-weight:bold;font-size:8.41596;writing-mode:lr;-inkscape-font-specification:Courier-Bold"
             x="-0.0340646 5.00593496 10.04593823 15.0859415 20.12594476 25.16594803 30.20595129 35.24595456 40.28595783 45.32595377 50.36595704 55.4059603 60.44596357 65.48596684 70.52597743 75.56597337 80.60596931 85.64596526 146.12590195 151.16589789 156.20589384 161.24588978 166.28588573 171.32588167 176.36587761 181.40587356 186.4458695 191.48586545 196.52589068 201.56588662 206.60588257 211.64587851 216.68587446 221.7258704 226.76583706 231.805833 327.56531295 332.60530889 337.64530484 342.68530078 347.72529672 352.76529267 357.80528861 362.84528456 367.8852805 372.92527645 377.96527239 383.00526833 388.04526428 393.08526022 398.12525617 403.16525211 408.20524806 413.245244 418.28523995 423.32523589 428.36523183 433.40522778 534.2050366 539.24506183 544.28508707 549.3251123 554.36513753 559.40516276 564.44518799"
             y="311.39052"
             sodipodi:role="line"
             id="tspan88">CABRERA EDUARDO M SCARSDALE CENTRAL 6,700 VILLAGE TAXABLE 26,500 </tspan><tspan
             style="fill:#000000;fill-opacity:1;fill-rule:nonzero;stroke:none;font-family:Courier;font-variant:normal;font-weight:bold;font-size:8.41596;writing-mode:lr;-inkscape-font-specification:Courier-Bold"
             x="-0.0350665 5.00493306 10.04493633 15.0849396 20.12494286 25.16494613 30.20494939 35.24495266 40.28495593 45.32495187 50.36495514 55.4049584 60.44496167 65.48496494 70.52497553 75.56497147 136.04490816 141.0849041 146.12490005 151.16489599 156.20489194 161.24488788 166.28488383 171.32487977 181.40487166 186.4448676 191.48486355 196.52488878 201.56488472 357.80428671 362.84428266 367.8842786 372.92427455 377.96427049 383.00426643 388.04426238 393.08425832 398.12425427 403.16425021 408.20424616 413.2442421 418.28423805 423.32423399 428.36422993 534.2040347 539.24405993 544.28408517 549.3241104 554.36413563 559.40416086 564.44418609"
             y="319.80648"
             sodipodi:role="line"
             id="tspan90">CABRERA MARIA L ACREAGE 0.38 SCHOOL TAXABLE 26,500 </tspan><tspan
             style="fill:#000000;fill-opacity:1;fill-rule:nonzero;stroke:none;font-family:Courier;font-variant:normal;font-weight:bold;font-size:8.41596;writing-mode:lr;-inkscape-font-specification:Courier-Bold"
             x="-0.0360684 5.00393116 10.04393443 15.0839377 20.12394096 25.16394423 30.20394749 35.24395076 40.28395403 45.32394997 50.36395324 55.4039565 60.44395977 65.48396304 70.52397363 136.04390626 141.0839022 146.12389815 151.16389409 156.20389004 161.24388598 166.28388193 171.32387787 176.36387381 181.40386976 186.4438657 191.48386165 196.52388688 201.56388282 206.60387877 211.64387471 216.68387066 221.7238666 226.76383326 231.8038292 236.84338215 322.5233132 327.56330915 332.60330509 337.64330104 342.68329698 347.72329292 352.76328887 357.80328481 362.84328076 367.8832767 372.92327265 377.96326859 383.00326453 388.04326048 393.08325642 398.12325237 403.16324831 408.20324426 413.2432402 418.28323615 423.32323209 428.36322803 433.40322398 438.44321992 443.48324516 534.2030328 539.24305803 544.28308327 549.3231085 554.36313373 559.40315896 564.44318419 569.48320943 574.52323466 579.56325989 584.60328512"
             y="328.22244"
             sodipodi:role="line"
             id="tspan92">10 SCHOOL LANE FRNT 75.00 DPTH 0.00 26,500 BS501 BRONX SEWER 26,500 TO C</tspan><tspan
             style="fill:#000000;fill-opacity:1;fill-rule:nonzero;stroke:none;font-family:Courier;font-variant:normal;font-weight:bold;font-size:8.41596;writing-mode:lr;-inkscape-font-specification:Courier-Bold"
             x="-20.19706855 -0.0370703 5.00292926 10.04293253 15.0829358 20.12293906 25.16294233 30.20294559 35.24294886 40.28295213 45.32294807 50.36295134 55.4029546 60.44295787 65.48296114 70.52297173 75.56296767 80.60296361 85.64295956 90.6829555 136.04290436 141.0829003 146.12289625 151.16289219 156.20288814 161.24288408 166.28288003 171.32287597 181.40286786 186.4428638 191.48285975 196.52288498 201.56288092 206.60287687 216.68286876 221.7228647 226.76283136 236.84238025 241.88237619 246.92237214 251.96236808 357.80228291 362.84227886 367.8822748 372.92227075 377.96226669 383.00226263 388.04225858 393.08225452 398.12225047 403.16224641 408.20224236 413.2422383 418.28223425 423.32223019 428.36222613 433.40222208 438.44221802 443.48224326 448.52226849 453.56229372 458.60231895 463.64234418 534.2020309 539.24205613 544.28208137 549.3221066 554.36213183 559.40215706 564.44218229 569.48220753 574.52223276 579.56225799"
             y="336.6384"
             sodipodi:role="line"
             id="tspan94"> SCARSDALE NY 10583 DEED BK 10636 PG 249 CW501 COUNTY SOLID WA 26,500 TO </tspan><tspan
             style="fill:#000000;fill-opacity:1;fill-rule:nonzero;stroke:none;font-family:Courier;font-variant:normal;font-weight:bold;font-size:8.41596;writing-mode:lr;-inkscape-font-specification:Courier-Bold"
             x="136.04190246 141.0818984 146.12189435 151.16189029 156.20188624 161.24188218 166.28187813 171.32187407 176.36187001 181.40186596 186.4418619 191.48185785 196.52188308 206.60187497 211.64187091 216.68186686 221.7218628 226.76182946 231.8018254 236.84137835 241.88137429 246.92137024 251.96136618"
             y="345.05436"
             sodipodi:role="line"
             id="tspan96">FULL MKT VAL 1,497,175 </tspan><tspan
             style="fill:#000000;fill-opacity:1;fill-rule:nonzero;stroke:none;font-family:Courier;font-variant:normal;font-weight:bold;font-size:8.41596;writing-mode:lr;-inkscape-font-specification:Courier-Bold"
             x="-0.0390741 5.00092546 10.04092873 15.080932 20.12093526 25.16093853 30.20094179 35.24094506 40.28094833 45.32094427 50.36094754 55.4009508 60.44095407 65.48095734 70.52096793 75.56096387 80.60095981 85.64095576 90.6809517 95.72094765 100.76094359 105.80092489 110.84092084 115.88091678 120.92091273 125.96090867 131.00090461 136.04090056 141.0808965 146.12089245 151.16088839 156.20088434 161.24088028 166.28087623 171.32087217 176.36086811 181.40086406 186.44086 191.48085595 196.52088118 201.56087712 206.60087307 211.64086901 216.68086496 221.7208609 226.76082756 231.8008235 236.84037645 241.88037239 246.92036834 251.96036428 257.00036022 262.04035617 267.08035211 272.12034806 277.160344 282.20033995 287.24033589 292.28033184 297.32032778 302.36032372 307.40031967 312.44031561 317.48031156 322.5203075 327.56030345 332.60029939 337.64029534 342.68029128 347.72028722 352.76028317 357.80027911 362.84027506 367.880271 372.92026695 377.96026289 383.00025883 388.04025478 393.08025072 398.12024667 403.16024261 408.20023856 413.2402345 418.28023045 423.32022639 428.36022233 433.40021828 438.44021422 443.48023946 448.52026469 453.56028992 458.60031515 463.64034038 468.68036562 473.72033227 478.7603575 483.80038274 488.84040797 493.87982525 498.91985048 503.95987571 508.99990094 514.03992617 519.07995141 524.11997664 529.16000187 534.2000271 539.24005233 544.28007757 549.3201028 554.36012803 559.40015326 564.44017849 569.48020373 574.52022896 579.56025419 584.60027942 589.64030465 594.68032989 599.72035512 604.76038035 609.80040558 614.84043081 619.88045605 624.92048128 629.96050651 635.00053174 640.04055697 645.08058221 650.12060744 655.16063267"
             y="353.47032"
             sodipodi:role="line"
             id="tspan98">********************************************************************************************** 01.01.5 ****************************</tspan><tspan
             style="fill:#000000;fill-opacity:1;fill-rule:nonzero;stroke:none;font-family:Courier;font-variant:normal;font-weight:bold;font-size:8.41596;writing-mode:lr;-inkscape-font-specification:Courier-Bold"
             x="-20.20007425 136.03989866 141.0798946 146.11989055 151.15988649 156.19988244 161.23987838 166.27987433 171.31987027 176.35986621 181.39986216 186.4398581 191.47985405 196.51987928 488.83940607 493.87882335 498.91884858 503.95887381 508.99889904 514.03892427 519.07894951 524.11897474 529.15899997 534.1990252 539.23905043 544.27907567 549.3191009 554.35912613 559.39915136 564.43917659"
             y="361.88628"
             sodipodi:role="line"
             id="tspan100"> 12 SCHOOL LA ACCT: 010005000 </tspan><tspan
             style="fill:#000000;fill-opacity:1;fill-rule:nonzero;stroke:none;font-family:Courier;font-variant:normal;font-weight:bold;font-size:8.41596;writing-mode:lr;-inkscape-font-specification:Courier-Bold"
             x="-0.0410779 4.99892166 10.03892493 15.0789282 20.11893146 25.15893473 30.19893799 35.23894126 110.83891704 115.87891298 120.91890893 136.03889676 141.0788927 146.11888865 151.15888459 156.19888054 161.23887648 166.27887243 171.31886837 176.35886431 181.39886026 186.4388562 191.47885215 196.51887738 201.55887332 206.59886927 211.63886521 216.67886116 357.79827531 362.83827126 367.8782672 372.91826315 377.95825909 382.99825503 388.03825098 393.07824692 398.11824287 403.15823881 408.19823476 413.2382307 418.27822665 423.31822259 428.35821853 534.1980233 539.23804853 544.27807377 549.318099 554.35812423 559.39814946 564.43817469"
             y="370.30224"
             sodipodi:role="line"
             id="tspan102">01.01.5 PX 210 1 FAMILY RES COUNTY TAXABLE 27,350 </tspan><tspan
             style="fill:#000000;fill-opacity:1;fill-rule:nonzero;stroke:none;font-family:Courier;font-variant:normal;font-weight:bold;font-size:8.41596;writing-mode:lr;-inkscape-font-specification:Courier-Bold"
             x="-0.0420798 4.99791976 10.03792303 15.0779263 20.11792956 25.15793283 30.19793609 35.23793936 40.27794263 45.31793857 50.35794184 55.3979451 60.43794837 65.47795164 70.51796223 146.11788675 151.15788269 156.19787864 161.23787458 166.27787053 171.31786647 176.35786241 181.39785836 186.4378543 191.47785025 196.51787548 201.55787142 206.59786737 211.63786331 216.67785926 221.7178552 226.75782186 231.7978178 327.55729775 332.59729369 337.63728964 342.67728558 347.71728152 352.75727747 357.79727341 362.83726936 367.8772653 372.91726125 377.95725719 382.99725313 388.03724908 393.07724502 398.11724097 403.15723691 408.19723286 413.2372288 418.27722475 423.31722069 428.35721663 433.39721258 534.1970214 539.23704663 544.27707187 549.3170971 554.35712233 559.39714756 564.43717279"
             y="378.7182"
             sodipodi:role="line"
             id="tspan104">HARRIS SCOTT B SCARSDALE CENTRAL 6,900 VILLAGE TAXABLE 27,350 </tspan><tspan
             style="fill:#000000;fill-opacity:1;fill-rule:nonzero;stroke:none;font-family:Courier;font-variant:normal;font-weight:bold;font-size:8.41596;writing-mode:lr;-inkscape-font-specification:Courier-Bold"
             x="-0.0430817 4.99691786 10.03692113 15.0769244 20.11692766 25.15693093 30.19693419 35.23693746 40.27694073 45.31693667 50.35693994 55.3969432 60.43694647 65.47694974 70.51696033 75.55695627 80.59695221 85.63694816 90.6769441 136.03689296 141.0768889 146.11688485 151.15688079 156.19687674 161.23687268 166.27686863 171.31686457 181.39685646 186.4368524 191.47684835 196.51687358 201.55686952 357.79627151 362.83626746 367.8762634 372.91625935 377.95625529 382.99625123 388.03624718 393.07624312 398.11623907 403.15623501 408.19623096 413.2362269 418.27622285 423.31621879 428.35621473 534.1960195 539.23604473 544.27606997 549.3160952 554.35612043 559.39614566 564.43617089"
             y="387.13416"
             sodipodi:role="line"
             id="tspan106">HARRIS JILL KALISH ACREAGE 0.40 SCHOOL TAXABLE 27,350 </tspan><tspan
             style="fill:#000000;fill-opacity:1;fill-rule:nonzero;stroke:none;font-family:Courier;font-variant:normal;font-weight:bold;font-size:8.41596;writing-mode:lr;-inkscape-font-specification:Courier-Bold"
             x="-0.0440836 4.99591596 10.03591923 15.0759225 20.11592576 25.15592903 30.19593229 35.23593556 40.27593883 45.31593477 50.35593804 55.3959413 60.43594457 136.03589106 141.075887 146.11588295 151.15587889 156.19587484 161.23587078 166.27586673 171.31586267 176.35585861 181.39585456 186.4358505 191.47584645 196.51587168 201.55586762 206.59586357 211.63585951 216.67585546 221.7158514 226.75581806 231.795814 236.83536695 322.515298 327.55529395 332.59528989 337.63528584 342.67528178 347.71527772 352.75527367 357.79526961 362.83526556 367.8752615 372.91525745 377.95525339 382.99524933 388.03524528 393.07524122 398.11523717 403.15523311 408.19522906 413.235225 418.27522095 423.31521689 428.35521283 433.39520878 438.43520472 443.47522996 534.1950176 539.23504283 544.27506807 549.3150933 554.35511853 559.39514376 564.43516899 569.47519423 574.51521946 579.55524469 584.59526992"
             y="395.55012"
             sodipodi:role="line"
             id="tspan108">12 SCHOOL LA FRNT 75.00 DPTH 0.00 27,350 BS501 BRONX SEWER 27,350 TO C</tspan><tspan
             style="fill:#000000;fill-opacity:1;fill-rule:nonzero;stroke:none;font-family:Courier;font-variant:normal;font-weight:bold;font-size:8.41596;writing-mode:lr;-inkscape-font-specification:Courier-Bold"
             x="-20.20508375 -0.0450855 4.99491406 10.03491733 15.0749206 20.11492386 25.15492713 30.19493039 35.23493366 40.27493693 45.31493287 50.35493614 55.3949394 60.43494267 65.47494594 70.51495653 75.55495247 80.59494841 85.63494436 90.6749403 136.03488916 141.0748851 146.11488105 151.15487699 156.19487294 161.23486888 166.27486483 171.31486077 181.39485266 186.4348486 191.47484455 196.51486978 201.55486572 206.59486167 216.67485356 221.7148495 226.75481616 236.83436505 241.87436099 246.91435694 251.95435288 256.99434882 357.79426771 362.83426366 367.8742596 372.91425555 377.95425149 382.99424743 388.03424338 393.07423932 398.11423527 403.15423121 408.19422716 413.2342231 418.27421905 423.31421499 428.35421093 433.39420688 438.43420282 443.47422806 448.51425329 453.55427852 458.59430375 463.63432898 534.1940157 539.23404093 544.27406617 549.3140914 554.35411663 559.39414186 564.43416709 569.47419233 574.51421756 579.55424279"
             y="403.96608"
             sodipodi:role="line"
             id="tspan110"> SCARSDALE NY 10583 DEED BK 50146 PG 3507 CW501 COUNTY SOLID WA 27,350 TO </tspan><tspan
             style="fill:#000000;fill-opacity:1;fill-rule:nonzero;stroke:none;font-family:Courier;font-variant:normal;font-weight:bold;font-size:8.41596;writing-mode:lr;-inkscape-font-specification:Courier-Bold"
             x="136.03388726 141.0738832 146.11387915 151.15387509 156.19387104 161.23386698 166.27386293 171.31385887 176.35385481 181.39385076 186.4338467 191.47384265 196.51386788 206.59385977 211.63385571 216.67385166 221.7138476 226.75381426 231.7938102 236.83336315 241.87335909 246.91335504 251.95335098"
             y="412.38204"
             sodipodi:role="line"
             id="tspan112">FULL MKT VAL 1,545,197 </tspan><tspan
             style="fill:#000000;fill-opacity:1;fill-rule:nonzero;stroke:none;font-family:Courier;font-variant:normal;font-weight:bold;font-size:8.41596;writing-mode:lr;-inkscape-font-specification:Courier-Bold"
             x="-0.0470893 4.99291026 10.03291353 15.0729168 20.11292006 25.15292333 30.19292659 35.23292986 40.27293313 45.31292907 50.35293234 55.3929356 60.43293887 65.47294214 70.51295273 75.55294867 80.59294461 85.63294056 90.6729365 95.71293245 100.75292839 105.79290969 110.83290564 115.87290158 120.91289753 125.95289347 130.99288941 136.03288536 141.0728813 146.11287725 151.15287319 156.19286914 161.23286508 166.27286103 171.31285697 176.35285291 181.39284886 186.4328448 191.47284075 196.51286598 201.55286192 206.59285787 211.63285381 216.67284976 221.7128457 226.75281236 231.7928083 236.83236125 241.87235719 246.91235314 251.95234908 256.99234502 262.03234097 267.07233691 272.11233286 277.1523288 282.19232475 287.23232069 292.27231664 297.31231258 302.35230852 307.39230447 312.43230041 317.47229636 322.5122923 327.55228825 332.59228419 337.63228014 342.67227608 347.71227202 352.75226797 357.79226391 362.83225986 367.8722558 372.91225175 377.95224769 382.99224363 388.03223958 393.07223552 398.11223147 403.15222741 408.19222336 413.2322193 418.27221525 423.31221119 428.35220713 433.39220308 438.43219902 443.47222426 448.51224949 453.55227472 458.59229995 463.63232518 468.67235042 473.71231707 478.7523423 483.79236754 488.83239277 493.87181005 498.91183528 503.95186051 508.99188574 514.03191097 519.07193621 524.11196144 529.15198667 534.1920119 539.23203713 544.27206237 549.3120876 554.35211283 559.39213806 564.43216329 569.47218853 574.51221376 579.55223899 584.59226422 589.63228945 594.67231469 599.71233992 604.75236515 609.79239038 614.83241561 619.87244085 624.91246608 629.95249131 634.99251654 640.03254177 645.07256701 650.11259224 655.15261747"
             y="420.798"
             sodipodi:role="line"
             id="tspan114">********************************************************************************************** 01.01.6 ****************************</tspan><tspan
             style="fill:#000000;fill-opacity:1;fill-rule:nonzero;stroke:none;font-family:Courier;font-variant:normal;font-weight:bold;font-size:8.41596;writing-mode:lr;-inkscape-font-specification:Courier-Bold"
             x="-20.20808945 136.03188346 141.0718794 146.11187535 151.15187129 156.19186724 161.23186318 166.27185913 171.31185507 176.35185101 181.39184696 186.4318429 191.47183885 196.51186408 488.83139087 493.87080815 498.91083338 503.95085861 508.99088384 514.03090907 519.07093431 524.11095954 529.15098477 534.19101 539.23103523 544.27106047 549.3110857 554.35111093 559.39113616 564.43116139"
             y="429.21396"
             sodipodi:role="line"
             id="tspan116"> 2 WINSLOW PL ACCT: 010006000 </tspan><tspan
             style="fill:#000000;fill-opacity:1;fill-rule:nonzero;stroke:none;font-family:Courier;font-variant:normal;font-weight:bold;font-size:8.41596;writing-mode:lr;-inkscape-font-specification:Courier-Bold"
             x="-0.0490931 4.99090646 10.03090973 15.070913 20.11091626 25.15091953 30.19092279 35.23092606 110.83090184 115.87089778 120.91089373 136.03088156 141.0708775 146.11087345 151.15086939 156.19086534 161.23086128 166.27085723 171.31085317 176.35084911 181.39084506 186.430841 191.47083695 196.51086218 201.55085812 206.59085407 211.63085001 216.67084596 357.79026011 362.83025606 367.870252 372.91024795 377.95024389 382.99023983 388.03023578 393.07023172 398.11022767 403.15022361 408.19021956 413.2302155 418.27021145 423.31020739 428.35020333 534.1900081 539.23003333 544.27005857 549.3100838 554.35010903 559.39013426 564.43015949"
             y="437.62992"
             sodipodi:role="line"
             id="tspan118">01.01.6 QK 210 1 FAMILY RES COUNTY TAXABLE 21,475 </tspan><tspan
             style="fill:#000000;fill-opacity:1;fill-rule:nonzero;stroke:none;font-family:Courier;font-variant:normal;font-weight:bold;font-size:8.41596;writing-mode:lr;-inkscape-font-specification:Courier-Bold"
             x="-0.050095 4.98990456 10.02990783 15.0699111 20.10991436 25.14991763 30.18992089 40.26992743 45.30992337 50.34992664 55.3899299 60.42993317 146.10987155 151.14986749 156.18986344 161.22985938 166.26985533 171.30985127 176.34984721 181.38984316 186.4298391 191.46983505 196.50986028 201.54985622 206.58985217 211.62984811 216.66984406 221.70984 226.74980666 231.7898026 327.54928255 332.58927849 337.62927444 342.66927038 347.70926632 352.74926227 357.78925821 362.82925416 367.8692501 372.90924605 377.94924199 382.98923793 388.02923388 393.06922982 398.10922577 403.14922171 408.18921766 413.2292136 418.26920955 423.30920549 428.34920143 433.38919738 534.1890062 539.22903143 544.26905667 549.3090819 554.34910713 559.38913236 564.42915759"
             y="446.04588"
             sodipodi:role="line"
             id="tspan120">HIRSCH MARK SCARSDALE CENTRAL 5,400 VILLAGE TAXABLE 21,475 </tspan><tspan
             style="fill:#000000;fill-opacity:1;fill-rule:nonzero;stroke:none;font-family:Courier;font-variant:normal;font-weight:bold;font-size:8.41596;writing-mode:lr;-inkscape-font-specification:Courier-Bold"
             x="-0.0510969 4.98890266 10.02890593 15.0689092 20.10891246 25.14891573 30.18891899 35.22892226 40.26892553 45.30892147 50.34892474 55.388928 60.42893127 65.46893454 70.50894513 75.54894107 136.02887776 141.0688737 146.10886965 151.14886559 156.18886154 161.22885748 166.26885343 171.30884937 181.38884126 186.4288372 191.46883315 196.50885838 201.54885432 357.78825631 362.82825226 367.8682482 372.90824415 377.94824009 382.98823603 388.02823198 393.06822792 398.10822387 403.14821981 408.18821576 413.2282117 418.26820765 423.30820359 428.34819953 534.1880043 539.22802953 544.26805477 549.30808 554.34810523 559.38813046 564.42815569"
             y="454.46184"
             sodipodi:role="line"
             id="tspan122">2 WINSLOW PLACE ACREAGE 0.23 SCHOOL TAXABLE 21,475 </tspan><tspan
             style="fill:#000000;fill-opacity:1;fill-rule:nonzero;stroke:none;font-family:Courier;font-variant:normal;font-weight:bold;font-size:8.41596;writing-mode:lr;-inkscape-font-specification:Courier-Bold"
             x="-0.0520988 4.98790076 10.02790403 15.0679073 20.10791056 25.14791383 30.18791709 35.22792036 40.26792363 45.30791957 50.34792284 55.3879261 60.42792937 65.46793264 70.50794323 75.54793917 80.58793511 85.62793106 90.667927 136.02787586 141.0678718 146.10786775 151.14786369 156.18785964 161.22785558 166.26785153 171.30784747 176.34784341 181.38783936 186.4278353 191.46783125 196.50785648 201.54785242 206.58784837 211.62784431 216.66784026 221.7078362 226.74780286 231.7877988 236.82735175 322.5072828 327.54727875 332.58727469 337.62727064 342.66726658 347.70726252 352.74725847 357.78725441 362.82725036 367.8672463 372.90724225 377.94723819 382.98723413 388.02723008 393.06722602 398.10722197 403.14721791 408.18721386 413.2272098 418.26720575 423.30720169 428.34719763 433.38719358 438.42718952 443.46721476 534.1870024 539.22702763 544.26705287 549.3070781 554.34710333 559.38712856 564.42715379 569.46717903 574.50720426 579.54722949 584.58725472"
             y="462.8778"
             sodipodi:role="line"
             id="tspan124">SCARSDALE NY 10583 FRNT 75.00 DPTH 0.00 21,475 BS501 BRONX SEWER 21,475 TO C</tspan><tspan
             style="fill:#000000;fill-opacity:1;fill-rule:nonzero;stroke:none;font-family:Courier;font-variant:normal;font-weight:bold;font-size:8.41596;writing-mode:lr;-inkscape-font-specification:Courier-Bold"
             x="-20.21309895 136.02687396 141.0668699 146.10686585 151.14686179 156.18685774 161.22685368 166.26684963 171.30684557 176.34684151 181.38683746 186.4268334 191.46682935 196.50685458 206.58684647 211.62684241 216.66683836 221.7068343 226.74680096 231.7867969 236.82634985 241.86634579 246.90634174 251.94633768 357.78625251 362.82624846 367.8662444 372.90624035 377.94623629 382.98623223 388.02622818 393.06622412 398.10622007 403.14621601 408.18621196 413.2262079 418.26620385 423.30619979 428.34619573 433.38619168 438.42618762 443.46621286 448.50623809 453.54626332 458.58628855 463.62631378 534.1860005 539.22602573 544.26605097 549.3060762 554.34610143 559.38612666 564.42615189 569.46617713 574.50620236 579.54622759"
             y="471.29376"
             sodipodi:role="line"
             id="tspan126"> FULL MKT VAL 1,213,276 CW501 COUNTY SOLID WA 21,475 TO </tspan><tspan
             style="fill:#000000;fill-opacity:1;fill-rule:nonzero;stroke:none;font-family:Courier;font-variant:normal;font-weight:bold;font-size:8.41596;writing-mode:lr;-inkscape-font-specification:Courier-Bold"
             x="-0.0541026 4.98589696 10.02590023 15.0659035 20.10590676 25.14591003 30.18591329 35.22591656 40.26591983 45.30591577 50.34591904 55.3859223 60.42592557 65.46592884 70.50593943 75.54593537 80.58593131 85.62592726 90.6659232 95.70591915 100.74591509 105.78589639 110.82589234 115.86588828 120.90588423 125.94588017 130.98587611 136.02587206 141.065868 146.10586395 151.14585989 156.18585584 161.22585178 166.26584773 171.30584367 176.34583961 181.38583556 186.4258315 191.46582745 196.50585268 201.54584862 206.58584457 211.62584051 216.66583646 221.7058324 226.74579906 231.785795 236.82534795 241.86534389 246.90533984 251.94533578 256.98533172 262.02532767 267.06532361 272.10531956 277.1453155 282.18531145 287.22530739 292.26530334 297.30529928 302.34529522 307.38529117 312.42528711 317.46528306 322.505279 327.54527495 332.58527089 337.62526684 342.66526278 347.70525872 352.74525467 357.78525061 362.82524656 367.8652425 372.90523845 377.94523439 382.98523033 388.02522628 393.06522222 398.10521817 403.14521411 408.18521006 413.225206 418.26520195 423.30519789 428.34519383 433.38518978 438.42518572 443.46521096 448.50523619 453.54526142 458.58528665 463.62531188 468.66533712 473.70530377 478.745329 483.78535424 488.82537947 493.86479675 498.90482198 503.94484721 508.98487244 514.02489767 519.06492291 524.10494814 529.14497337 534.1849986 539.22502383 544.26504907 549.3050743 554.34509953 559.38512476 564.42514999 569.46517523 574.50520046 579.54522569 584.58525092 589.62527615 594.66530139 599.70532662 604.74535185 609.78537708 614.82540231 619.86542755 624.90545278 629.94547801 634.98550324 640.02552847 645.06555371 650.10557894 655.14560417 660.1856294"
             y="488.12568"
             sodipodi:role="line"
             id="tspan128">************************************************************************************************************************************</tspan></text>
</g></g></g></svg>